# Blender v2.78 (sub 0) OBJ File: ''
# www.blender.org
mtllib muzzle.mtl
o Mesh1_Model
v -0.000000 -0.000000 0.000000
v -0.500000 -0.500000 0.500000
v 0.500000 -0.500000 0.500000
v -0.500000 -0.500000 -0.500000
v 0.500000 -0.500000 -0.500000
vt 0.5000 0.5000
vt 0.0000 0.0000
vt 1.0000 0.0000
vt 0.0000 1.0000
vt 1.0000 1.0000
vn 0.0000 0.7071 0.7071
vn -0.7071 0.7071 0.0000
vn 0.0000 0.7071 -0.7071
vn 0.7071 0.7071 0.0000
usemtl FrontColor
s 1
f 1/1/1 2/2/1 3/3/1
f 1/1/2 4/4/2 2/2/2
f 1/1/3 5/5/3 4/4/3
f 1/1/4 3/3/4 5/5/4
